<mxfile host="app.diagrams.net" modified="2024-06-26T20:12:26.283Z" agent="Mozilla/5.0 (Windows NT 10.0; Win64; x64) AppleWebKit/537.36 (KHTML, like Gecko) Chrome/126.0.0.0 Safari/537.36" etag="T_TpQ5X5KwlZ1vksTioN" version="24.6.3" type="device">
  <diagram name="Seite-1" id="p8D04-b_l7AVYHQPJmhC">
    <mxGraphModel dx="1434" dy="746" grid="1" gridSize="10" guides="1" tooltips="1" connect="1" arrows="1" fold="1" page="1" pageScale="1" pageWidth="827" pageHeight="1169" math="0" shadow="0">
      <root>
        <mxCell id="0" />
        <mxCell id="1" parent="0" />
        <mxCell id="y5CdLpiEDwNNfCpNdDVb-6" style="edgeStyle=orthogonalEdgeStyle;rounded=0;orthogonalLoop=1;jettySize=auto;html=1;exitX=0.75;exitY=0;exitDx=0;exitDy=0;entryX=0.75;entryY=1;entryDx=0;entryDy=0;" edge="1" parent="1" source="y5CdLpiEDwNNfCpNdDVb-1" target="y5CdLpiEDwNNfCpNdDVb-2">
          <mxGeometry relative="1" as="geometry">
            <Array as="points">
              <mxPoint x="430" y="190" />
              <mxPoint x="430" y="190" />
            </Array>
          </mxGeometry>
        </mxCell>
        <mxCell id="y5CdLpiEDwNNfCpNdDVb-14" value="Darstellung" style="edgeLabel;html=1;align=center;verticalAlign=middle;resizable=0;points=[];" vertex="1" connectable="0" parent="y5CdLpiEDwNNfCpNdDVb-6">
          <mxGeometry x="-0.0222" y="-1" relative="1" as="geometry">
            <mxPoint x="29" as="offset" />
          </mxGeometry>
        </mxCell>
        <mxCell id="y5CdLpiEDwNNfCpNdDVb-7" style="edgeStyle=orthogonalEdgeStyle;rounded=0;orthogonalLoop=1;jettySize=auto;html=1;exitX=0.25;exitY=1;exitDx=0;exitDy=0;entryX=0.25;entryY=0;entryDx=0;entryDy=0;" edge="1" parent="1" source="y5CdLpiEDwNNfCpNdDVb-1" target="y5CdLpiEDwNNfCpNdDVb-4">
          <mxGeometry relative="1" as="geometry" />
        </mxCell>
        <mxCell id="y5CdLpiEDwNNfCpNdDVb-17" value="Sendet Aktion" style="edgeLabel;html=1;align=center;verticalAlign=middle;resizable=0;points=[];" vertex="1" connectable="0" parent="y5CdLpiEDwNNfCpNdDVb-7">
          <mxGeometry x="0.175" y="-2" relative="1" as="geometry">
            <mxPoint x="-38" y="-7" as="offset" />
          </mxGeometry>
        </mxCell>
        <mxCell id="y5CdLpiEDwNNfCpNdDVb-1" value="View" style="rounded=0;whiteSpace=wrap;html=1;" vertex="1" parent="1">
          <mxGeometry x="340" y="230" width="120" height="60" as="geometry" />
        </mxCell>
        <mxCell id="y5CdLpiEDwNNfCpNdDVb-5" style="edgeStyle=orthogonalEdgeStyle;rounded=0;orthogonalLoop=1;jettySize=auto;html=1;exitX=0.25;exitY=1;exitDx=0;exitDy=0;entryX=0.25;entryY=0;entryDx=0;entryDy=0;" edge="1" parent="1" source="y5CdLpiEDwNNfCpNdDVb-2" target="y5CdLpiEDwNNfCpNdDVb-1">
          <mxGeometry relative="1" as="geometry" />
        </mxCell>
        <mxCell id="y5CdLpiEDwNNfCpNdDVb-13" value="liest / bearbeitet" style="edgeLabel;html=1;align=center;verticalAlign=middle;resizable=0;points=[];" vertex="1" connectable="0" parent="y5CdLpiEDwNNfCpNdDVb-5">
          <mxGeometry y="2" relative="1" as="geometry">
            <mxPoint x="-52" as="offset" />
          </mxGeometry>
        </mxCell>
        <mxCell id="y5CdLpiEDwNNfCpNdDVb-2" value="User" style="rounded=0;whiteSpace=wrap;html=1;" vertex="1" parent="1">
          <mxGeometry x="340" y="80" width="120" height="60" as="geometry" />
        </mxCell>
        <mxCell id="y5CdLpiEDwNNfCpNdDVb-9" style="edgeStyle=orthogonalEdgeStyle;rounded=0;orthogonalLoop=1;jettySize=auto;html=1;exitX=0.75;exitY=0;exitDx=0;exitDy=0;entryX=0.75;entryY=1;entryDx=0;entryDy=0;" edge="1" parent="1" source="y5CdLpiEDwNNfCpNdDVb-4" target="y5CdLpiEDwNNfCpNdDVb-1">
          <mxGeometry relative="1" as="geometry" />
        </mxCell>
        <mxCell id="y5CdLpiEDwNNfCpNdDVb-18" value="Wählt Aktion" style="edgeLabel;html=1;align=center;verticalAlign=middle;resizable=0;points=[];" vertex="1" connectable="0" parent="y5CdLpiEDwNNfCpNdDVb-9">
          <mxGeometry x="-0.05" y="1" relative="1" as="geometry">
            <mxPoint x="41" as="offset" />
          </mxGeometry>
        </mxCell>
        <mxCell id="y5CdLpiEDwNNfCpNdDVb-11" style="edgeStyle=orthogonalEdgeStyle;rounded=0;orthogonalLoop=1;jettySize=auto;html=1;exitX=0.25;exitY=1;exitDx=0;exitDy=0;entryX=0.25;entryY=0;entryDx=0;entryDy=0;" edge="1" parent="1" source="y5CdLpiEDwNNfCpNdDVb-4" target="y5CdLpiEDwNNfCpNdDVb-10">
          <mxGeometry relative="1" as="geometry" />
        </mxCell>
        <mxCell id="y5CdLpiEDwNNfCpNdDVb-19" value="Anfrage /Update" style="edgeLabel;html=1;align=center;verticalAlign=middle;resizable=0;points=[];" vertex="1" connectable="0" parent="y5CdLpiEDwNNfCpNdDVb-11">
          <mxGeometry x="-0.025" relative="1" as="geometry">
            <mxPoint x="-50" as="offset" />
          </mxGeometry>
        </mxCell>
        <mxCell id="y5CdLpiEDwNNfCpNdDVb-4" value="Controller" style="rounded=0;whiteSpace=wrap;html=1;" vertex="1" parent="1">
          <mxGeometry x="340" y="370" width="120" height="60" as="geometry" />
        </mxCell>
        <mxCell id="y5CdLpiEDwNNfCpNdDVb-12" style="edgeStyle=orthogonalEdgeStyle;rounded=0;orthogonalLoop=1;jettySize=auto;html=1;exitX=0.75;exitY=0;exitDx=0;exitDy=0;entryX=0.75;entryY=1;entryDx=0;entryDy=0;" edge="1" parent="1" source="y5CdLpiEDwNNfCpNdDVb-10" target="y5CdLpiEDwNNfCpNdDVb-4">
          <mxGeometry relative="1" as="geometry" />
        </mxCell>
        <mxCell id="y5CdLpiEDwNNfCpNdDVb-21" value="Rückgabe" style="edgeLabel;html=1;align=center;verticalAlign=middle;resizable=0;points=[];" vertex="1" connectable="0" parent="y5CdLpiEDwNNfCpNdDVb-12">
          <mxGeometry y="1" relative="1" as="geometry">
            <mxPoint as="offset" />
          </mxGeometry>
        </mxCell>
        <mxCell id="y5CdLpiEDwNNfCpNdDVb-10" value="Model" style="rounded=0;whiteSpace=wrap;html=1;" vertex="1" parent="1">
          <mxGeometry x="340" y="510" width="120" height="60" as="geometry" />
        </mxCell>
      </root>
    </mxGraphModel>
  </diagram>
</mxfile>
